<svg xmlns="http://www.w3.org/2000/svg" xmlns:xlink="http://www.w3.org/1999/xlink" id="Layer_1" x="0px" y="0px" viewBox="0 0 413.5 133.5" style="enable-background:new 0 0 413.5 133.5;" xml:space="preserve" focusable="false" height="53" width="163" preserveAspectRatio="xMidYMid meet" role="presentation" aria-hidden="true">
<style type="text/css">
	.st0{fill:#911A25;}
	.st1{fill:#054F87;}
	.st2{fill:#24385A;}
</style>
<path class="st0" d="M204.2,65.8c-2.1,0-3.7-1.7-3.7-3.7V16.6c0-2.1,1.7-3.7,3.7-3.7c2.1,0,3.7,1.7,3.7,3.7V62  C207.9,64.1,206.2,65.8,204.2,65.8"></path>
<path class="st0" d="M162,65.8c-13.8,0-25.1-11.6-25.1-25.8c0-14.3,11.2-25.8,25.1-25.8c13,0,23.9,10.4,25,23.7  c0.2,2.1-1.4,3.9-3.4,4c-2.1,0.2-3.9-1.4-4-3.4c-0.7-9.4-8.4-16.8-17.5-16.8c-9.7,0-17.6,8.2-17.6,18.4c0,10.1,7.9,18.4,17.6,18.4  c8.8,0,14.1-2.7,15.9-8.2c0.6-2,2.7-3,4.7-2.4c2,0.6,3,2.7,2.4,4.7C182.2,61.1,174.1,65.8,162,65.8"></path>
<path class="st0" d="M204.2,66c-2.1,0-3.7-1.7-3.7-3.7V30.4c0-5.2,2.6-10,7.2-13.3c4.1-2.9,9.5-4.6,14.9-4.6  c6.4,0,12.2,2.3,16.5,6.4c4.9,4.8,7.6,11.8,7.6,20.4V62c0,2.1-1.7,3.7-3.7,3.7c-2.1,0-3.7-1.7-3.7-3.7V39.2c0-6.6-1.8-11.7-5.3-15  c-2.9-2.8-6.9-4.3-11.3-4.3c-9,0-14.6,5.4-14.6,10.5v31.8C208,64.3,206.3,66,204.2,66"></path>
<path class="st0" d="M182.4,43H153c-2.1,0-3.7-1.7-3.7-3.7c0-2.1,1.7-3.7,3.7-3.7h29.4c2.1,0,3.7,1.7,3.7,3.7  C186.1,41.3,184.5,43,182.4,43"></path>
<path class="st0" d="M39.2,66c-14.7,0-26.7-11.7-26.7-26.2c0-0.1,0-0.3,0-0.4l0-0.1c0-2.1,1.7-3.7,3.8-3.7c2.1,0,3.7,1.8,3.7,3.8  l0,0.2c0,0.1,0,0.1,0,0.2c0,10.3,8.6,18.7,19.2,18.7c10.6,0,19.2-8.4,19.2-18.7c0-10.2-8.5-18.6-18.9-18.7c-2.1,0-3.7-1.7-3.7-3.8  c0-2,1.7-3.7,3.7-3.7c0,0,0,0,0,0c14.5,0.2,26.3,11.9,26.3,26.2C65.9,54.2,53.9,66,39.2,66"></path>
<path class="st1" d="M3.7,29.5C3.7,29.5,3.7,29.5,3.7,29.5c-2.1,0-3.8-1.8-3.7-3.8c0.1-6.9,3-13.3,8-18.2C13,2.7,19.6,0,26.7,0  c0.1,0,0.2,0,0.3,0c2.1,0,3.7,1.7,3.7,3.8c0,2.1-1.7,3.7-3.7,3.7h0c-0.1,0-0.2,0-0.2,0l-0.1,0c-10.3,0-18.9,8.2-19.2,18.3  C7.4,27.8,5.8,29.5,3.7,29.5"></path>
<polygon class="st2" points="264.2,38.5 269.5,38.5 269.5,39.9 265.9,39.9 265.9,42.5 268.9,42.5 268.9,43.9 265.9,43.9 265.9,47.6   264.2,47.6 "></polygon>
<path class="st2" d="M276.4,46.3c1.7,0,3-1.4,3-3.3c0-1.8-1.3-3.1-3-3.1c-1.7,0-3,1.3-3,3.1C273.4,44.9,274.7,46.3,276.4,46.3   M276.4,38.4c2.7,0,4.7,2,4.7,4.6c0,2.7-2,4.8-4.7,4.8s-4.7-2.1-4.7-4.8C271.7,40.4,273.7,38.4,276.4,38.4"></path>
<polygon class="st2" points="284,38.5 285.7,38.5 285.7,46.2 289.6,46.2 289.6,47.6 284,47.6 "></polygon>
<polygon class="st2" points="292.2,38.5 293.9,38.5 293.9,46.2 297.8,46.2 297.8,47.6 292.2,47.6 "></polygon>
<path class="st2" d="M304.5,46.3c1.7,0,3-1.4,3-3.3c0-1.8-1.3-3.1-3-3.1c-1.7,0-3,1.3-3,3.1C301.5,44.9,302.9,46.3,304.5,46.3   M304.5,38.4c2.7,0,4.7,2,4.7,4.6c0,2.7-2,4.8-4.7,4.8c-2.7,0-4.7-2.1-4.7-4.8C299.8,40.4,301.8,38.4,304.5,38.4"></path>
<path class="st2" d="M319.6,44.8c0.1,0.5,0.2,1,0.2,1h0c0,0,0-0.4,0.2-1l1.5-6.3h1.7l-2.3,9.1h-1.9l-1.4-5.4  c-0.2-0.6-0.2-1.2-0.2-1.2h0c0,0-0.1,0.6-0.2,1.2l-1.4,5.4h-1.9l-2.3-9.1h1.7l1.4,6.3c0.1,0.5,0.2,1,0.2,1h0c0,0,0-0.4,0.2-1  l1.6-6.3h1.4L319.6,44.8z"></path>
<rect x="325.9" y="38.5" class="st2" width="1.7" height="9.1"></rect>
<path class="st2" d="M331.1,38.5h1.7l3.4,5.3c0.3,0.5,0.8,1.4,0.8,1.4h0c0,0-0.1-0.9-0.1-1.4v-5.3h1.6v9.1h-1.6l-3.5-5.2  c-0.3-0.5-0.8-1.4-0.8-1.4h0c0,0,0.1,0.9,0.1,1.4v5.2h-1.7V38.5z"></path>
<path class="st2" d="M346.2,38.4c2.2,0,3.4,1.2,3.4,1.2l-0.8,1.2c0,0-1-0.9-2.4-0.9c-2,0-3.1,1.4-3.1,3.1c0,2,1.3,3.3,3.1,3.3  c1.4,0,2.3-0.9,2.3-0.9v-1.1h-1.4v-1.4h2.9v4.8h-1.4v-0.4c0-0.2,0-0.4,0-0.4h0c0,0-0.9,1-2.6,1c-2.4,0-4.5-1.9-4.5-4.7  C341.5,40.4,343.5,38.4,346.2,38.4"></path>
<polygon class="st2" points="359.5,39.9 356.5,39.9 356.5,38.5 364.1,38.5 364.1,39.9 361.1,39.9 361.1,47.6 359.5,47.6 "></polygon>
<polygon class="st2" points="366.6,38.5 368.2,38.5 368.2,42.4 372.4,42.4 372.4,38.5 374.1,38.5 374.1,47.6 372.4,47.6 372.4,43.8   368.2,43.8 368.2,47.6 366.6,47.6 "></polygon>
<polygon class="st2" points="377.7,38.5 383.1,38.5 383.1,39.9 379.3,39.9 379.3,42.3 382.4,42.3 382.4,43.8 379.3,43.8 379.3,46.2   383.3,46.2 383.3,47.6 377.7,47.6 "></polygon>
<path class="st2" d="M264.7,53.9h1.8l1.8,4.5c0.2,0.5,0.5,1.3,0.5,1.3h0c0,0,0.2-0.8,0.4-1.3l1.8-4.5h1.8l0.7,9.1h-1.6l-0.4-5.1  c0-0.6,0-1.4,0-1.4h0c0,0-0.3,0.9-0.5,1.4l-1.5,3.5H268l-1.5-3.5c-0.2-0.5-0.5-1.4-0.5-1.4h0c0,0,0,0.8,0,1.4l-0.4,5.1h-1.7  L264.7,53.9z"></path>
<path class="st2" d="M280.9,61.7c1.7,0,3-1.4,3-3.3c0-1.8-1.3-3.1-3-3.1c-1.7,0-3,1.3-3,3.1C277.9,60.3,279.2,61.7,280.9,61.7   M280.9,53.8c2.7,0,4.7,2,4.7,4.6c0,2.7-2,4.8-4.7,4.8c-2.7,0-4.7-2.1-4.7-4.8C276.1,55.8,278.2,53.8,280.9,53.8"></path>
<path class="st2" d="M288.5,53.9h1.7l3.4,5.3c0.3,0.5,0.8,1.4,0.8,1.4h0c0,0-0.1-0.9-0.1-1.4v-5.3h1.6V63h-1.6l-3.5-5.2  c-0.3-0.5-0.8-1.4-0.8-1.4h0c0,0,0.1,0.9,0.1,1.4V63h-1.7V53.9z"></path>
<polygon class="st2" points="299.6,53.9 305,53.9 305,55.3 301.2,55.3 301.2,57.7 304.3,57.7 304.3,59.2 301.2,59.2 301.2,61.6   305.2,61.6 305.2,63 299.6,63 "></polygon>
<path class="st2" d="M310.1,59.2l-3-5.3h1.9l1.4,2.7c0.3,0.6,0.5,1.2,0.6,1.2h0c0,0,0.3-0.7,0.6-1.2l1.4-2.7h1.9l-3,5.3V63h-1.7  V59.2z"></path>
<rect x="321.7" y="53.9" class="st2" width="1.7" height="9.1"></rect>
<path class="st2" d="M326.9,53.9h1.7l3.4,5.3c0.3,0.5,0.8,1.4,0.8,1.4h0c0,0-0.1-0.9-0.1-1.4v-5.3h1.6V63h-1.6l-3.5-5.2  c-0.3-0.5-0.8-1.4-0.8-1.4h0c0,0,0.1,0.9,0.1,1.4V63h-1.7V53.9z"></path>
<path class="st2" d="M345.5,58.4c1,0,1.5-0.6,1.5-1.6c0-0.9-0.6-1.5-1.5-1.5H344v3.1H345.5z M342.3,53.9h3.5c1.7,0,2.9,1.2,2.9,3  c0,1.8-1.2,3-2.9,3H344V63h-1.7V53.9z"></path>
<path class="st2" d="M355.6,61.7c1.7,0,3-1.4,3-3.3c0-1.8-1.3-3.1-3-3.1c-1.7,0-3,1.3-3,3.1C352.6,60.3,353.9,61.7,355.6,61.7   M355.6,53.8c2.7,0,4.7,2,4.7,4.6c0,2.7-2,4.8-4.7,4.8c-2.7,0-4.7-2.1-4.7-4.8C350.9,55.8,352.9,53.8,355.6,53.8"></path>
<polygon class="st2" points="363.2,53.9 364.9,53.9 364.9,61.6 368.8,61.6 368.8,63 363.2,63 "></polygon>
<rect x="371.4" y="53.9" class="st2" width="1.7" height="9.1"></rect>
<polygon class="st2" points="378.6,55.3 375.6,55.3 375.6,53.9 383.2,53.9 383.2,55.3 380.2,55.3 380.2,63 378.6,63 "></polygon>
<rect x="385.7" y="53.9" class="st2" width="1.7" height="9.1"></rect>
<path class="st2" d="M395,53.8c2.2,0,3.4,1.2,3.4,1.2l-0.8,1.2c0,0-1-1-2.5-1c-1.9,0-3.1,1.4-3.1,3.1c0,1.7,1.2,3.3,3.1,3.3  c1.6,0,2.6-1.2,2.6-1.2l0.9,1.2c0,0-1.3,1.5-3.6,1.5c-2.8,0-4.7-2.1-4.7-4.7C390.3,55.8,392.3,53.8,395,53.8"></path>
<path class="st2" d="M401.6,60.7c0,0,1,1,2.3,1c0.7,0,1.3-0.4,1.3-1.1c0-1.6-4.3-1.3-4.3-4.1c0-1.5,1.3-2.6,3.1-2.6  c1.8,0,2.7,1,2.7,1l-0.7,1.3c0,0-0.9-0.8-2-0.8c-0.8,0-1.4,0.4-1.4,1.1c0,1.6,4.3,1.2,4.3,4.1c0,1.4-1.1,2.7-3,2.7  c-2,0-3.1-1.2-3.1-1.2L401.6,60.7z"></path>
<path class="st1" d="M132.1,91.8c-2.4-3.8-5.3-5.6-10.9-5.6c-5.1,0-7.8,2.3-7.8,6.1c0,4.3,3.5,6.3,10.9,8.1  c11.5,2.9,16.8,7.2,16.8,17c0,9.1-6.1,16.1-19.1,16.1c-9.7,0-16.4-2.6-21.3-9.1l8.6-5.9c3,3.7,6.3,5.5,12,5.5c6.4,0,8.6-2.8,8.6-6.2  c0-3.8-2.3-6-11.3-8.3c-10.9-2.9-16.4-8.1-16.4-17.2c0-8.7,5.8-15.6,18.9-15.6c8.8,0,15.5,3,19.4,9.1L132.1,91.8z"></path>
<polygon class="st1" points="183.3,83.7 183.3,93.5 164.1,93.5 164.1,102.5 181.2,102.5 181.2,112.3 164.1,112.3 164.1,123   183.3,123 183.3,132.8 152.3,132.8 152.3,83.7 "></polygon>
<path class="st1" d="M220.9,98.8c-0.5-3.1-2.6-6.1-6.8-6.1c-4.9,0-7.5,3.6-7.5,11.6v7.7c0,7.7,2.6,11.6,7.5,11.6  c4.2,0,6.1-2.1,6.8-6.1h11.2c-1.7,11-7.7,15.9-18.1,15.9c-11.2,0-19.4-6.8-19.4-21.4v-7.7c0-14.8,8.2-21.4,19.4-21.4  c9.8,0,16.4,5.2,18.1,15.9H220.9z"></path>
<path class="st1" d="M260.6,104.4c4.8,0,8.2-0.6,8.2-5.3c0-4.7-3.4-5.6-8.2-5.6h-5.3v10.9H260.6z M269.7,132.8l-8.2-18.6h-6.1v18.6  h-11.8V83.7H262c11.3,0,18.6,5.2,18.6,15.4c0,6.4-2.8,10.7-7.8,13l9.8,20.6H269.7z"></path>
<polygon class="st1" points="325.4,83.7 325.4,93.5 306.2,93.5 306.2,102.5 323.3,102.5 323.3,112.3 306.2,112.3 306.2,123   325.4,123 325.4,132.8 294.3,132.8 294.3,83.7 "></polygon>
<polygon class="st1" points="371.7,83.7 371.7,93.5 358.9,93.5 358.9,132.8 347.1,132.8 347.1,93.5 334.3,93.5 334.3,83.7 "></polygon>
<path class="st1" d="M404.4,97.3c-1.9-3.3-4.3-4.5-8.8-4.5c-3.9,0-5.6,1.8-5.6,4.3c0,2.9,2.6,4.6,8.8,6.3c10.7,3.1,14.7,7,14.7,15.4  c0,8.9-6,14.7-17.2,14.7c-9,0-15-2.2-19.6-8l8.8-6.2c2.4,3.1,5.4,4.4,9.8,4.4c4.6,0,6.3-1.9,6.3-4.3c0-2.8-2-4.3-9.3-6.6  c-10-3.2-14.2-7.8-14.2-15.7c0-8.1,5.3-14.2,17.3-14.2c7.8,0,14.2,2.6,17.7,8L404.4,97.3z"></path>
<path class="st0" d="M102.2,21.1c-10.3,0-18.7,8.4-18.7,18.7s8.4,18.7,18.7,18.7s18.7-8.4,18.7-18.7S112.5,21.1,102.2,21.1   M102.2,66c-14.4,0-26.2-11.7-26.2-26.2s11.7-26.2,26.2-26.2s26.2,11.7,26.2,26.2S116.7,66,102.2,66"></path>
<path class="st0" d="M79.8,95.7c-2.1,0-3.7-1.7-3.7-3.7V18.4c0-2.1,1.7-3.7,3.7-3.7c2.1,0,3.7,1.7,3.7,3.7V92  C83.5,94,81.9,95.7,79.8,95.7"></path>
</svg>