<svg width="430" height="430" viewBox="0 0 430 430" fill="none" xmlns="http://www.w3.org/2000/svg">
<rect width="430" height="430" fill="white"/>
<path d="M381.2 285.5C381.3 284.3 381 283 380.3 281.9L330.4 203.3C318.5 184.6 307.3 166.9 305.3 163.7C302.1 158.7 295.7 155 290 155H239.6C236.3 155 233.6 157.7 233.6 161C233.6 164.3 236.3 167 239.6 167H290C291.4 167 294.1 168.4 295.1 170.1C297.1 173.4 308.2 190.8 320.3 209.8L364.4 279.2C360.9 279.2 356.7 279.2 352 279.2H337.8C316.2 279.2 300.4 279.2 299.2 279.2C296.1 279.1 293.3 279 275.9 307C268.5 319 245.4 329.2 225.5 329.2H211.5C191.5 329.2 167.3 318.9 158.6 306.7C139.1 279.2 135.8 279.2 133.2 279.2H66.0999L110.4 210.9C122.4 192.4 134 174.4 136.3 170.8C137.6 168.8 140.8 167.1 142.4 167.1H166.6H170.3H191.2C194.5 167.1 197.2 164.4 197.2 161.1C197.2 157.8 194.5 155.1 191.2 155.1H170.3H166.9H142.4C136.5 155.1 129.6 159.1 126.2 164.3C123.9 167.9 112.3 185.8 100.3 204.3L49.9999 281.9C49.2999 283 48.9999 284.2 48.9999 285.4C48.9999 285.5 48.9999 285.6 48.9999 285.7C48.9999 286 48.9999 304.2 48.8999 326.3V332.3C48.8999 344.6 53.6999 356.1 62.2999 364.8C70.9999 373.5 82.4999 378.3 94.7999 378.3H334.9C360.3 378.3 380.9 357.7 381 332.3V326.5C381 304.8 381.1 286.6 381.1 285.9C381.2 285.8 381.2 285.7 381.2 285.5ZM369.1 326.5V332.3C369.1 351.1 353.8 366.3 335 366.3H94.8999C85.7999 366.3 77.2999 362.8 70.8999 356.3C64.4999 349.9 60.9999 341.3 60.9999 332.3V326.3C60.9999 311.4 60.9999 298.2 60.9999 291.2H131.2C133.9 293.9 140.6 302.2 148.8 313.7C159.8 329.1 187.3 341.2 211.4 341.2H225.4C249.7 341.2 276.3 329 286 313.4C293.3 301.6 298.8 294.1 301.1 291.3C307.1 291.3 322.9 291.3 337.6 291.3H351.8C359 291.3 365 291.3 369.1 291.3C369.2 298.4 369.1 312.1 369.1 326.5Z" fill="#054f87"/>
<path d="M215.7 279.5C212.4 279.5 209.7 276.8 209.7 273.5V72.5L164 118.3C161.7 120.6 157.9 120.6 155.5 118.3C153.2 116 153.2 112.2 155.5 109.8L211.5 53.8C211.6 53.7 211.7 53.6 211.9 53.5C212.9 52.6 214.3 52.1 215.7 52.1C217.3 52.1 218.8 52.8 219.9 53.8L275.6 109.5C277.9 111.8 277.9 115.6 275.6 118C273.3 120.3 269.5 120.3 267.1 118L221.7 72.6V273.6C221.7 276.8 219.1 279.5 215.7 279.5Z" fill="#911a25"/>
</svg>
